<?xml version="1.0" encoding="UTF-8"?>
<svg width="31px" height="43px" viewBox="0 0 31 43" version="1.1" xmlns="http://www.w3.org/2000/svg" xmlns:xlink="http://www.w3.org/1999/xlink">
    <title>unselected</title>
    <g id="Page-1" stroke="none" stroke-width="1" fill="none" fill-rule="evenodd">
        <g id="unselected" transform="translate(1.000000, 1.000000)">
            <path d="M13.0882353,41 C24.3627451,30.4004492 30,23.180884 30,19.3413043 C30,13.5819349 25.457007,8.91304348 19.8529412,8.91304348 C14.2488753,8.91304348 9.70588235,13.5819349 9.70588235,19.3413043 C9.70588235,23.180884 10.8333333,30.4004492 13.0882353,41 Z" id="Oval" fill-opacity="0.6" fill="#000000"></path>
            <path d="M13.2352941,41 C22.0588235,27.4561295 26.4705882,18.2311295 26.4705882,13.325 C26.4705882,5.96580571 20.5449452,0 13.2352941,0 C5.92564302,0 1.75851681e-15,5.96580571 1.75851681e-15,13.325 C1.75851681e-15,18.2311295 4.41176471,27.4561295 13.2352941,41 Z" id="Oval" stroke-opacity="0.314357517" stroke="#000000" stroke-width="0.5" fill="#E22E26"></path>
            <ellipse id="Oval" fill="#FFFFFF" cx="13.3371041" cy="13.0175" rx="4.78506787" ry="4.8175"></ellipse>
        </g>
    </g>
</svg>